# xmcd CD database file generated by OrangeCD 5.2
#
# Track frame offsets:
#	150
#	10608
#	23824
#	32072
#	46443
#
# Disc length: 783 seconds
#
# Revision: 0
# Processed by: cddbd v1.5.1PL0 Copyright (c) Steve Scherf et al.
# Submitted via: OrangeCD 5.2
#
DISCID=30030d05
DTITLE=Ray Campi and The Sidekicks - Somebody Took My Teeth On Christmas Evenin
DTITLE=g
DYEAR=2000
DGENRE=Country
TTITLE0=Somebody Took My Teeth (On Christmas Evening)
TTITLE1=Christmas Cheer
TTITLE2=Rockabilly Christmas
TTITLE3=White Christmas
TTITLE4=Let The New Year In Your Heart
EXTD=
EXTT0=
EXTT1=
EXTT2=
EXTT3=
EXTT4=
PLAYORDER=
